<?xml version="1.0" encoding="UTF-8" standalone="no"?>
<svg viewBox="0 0 50 50"
 xmlns="http://www.w3.org/2000/svg" xmlns:xlink="http://www.w3.org/1999/xlink"  version="1.2" baseProfile="tiny">
<title>Qt SVG Document</title>
<desc>Generated with Qt</desc>
<defs>
<linearGradient gradientUnits="userSpaceOnUse" x1="71.205" y1="-46.4111" x2="87.6361" y2="-62.8814" id="gradient1">
    <stop offset="0" stop-color="#00dc96" stop-opacity="1" />
    <stop offset="1" stop-color="#14d29b" stop-opacity="1" />
</linearGradient>
</defs>
<g fill="none" stroke="black" stroke-width="1" fill-rule="evenodd" stroke-linecap="square" stroke-linejoin="bevel" >

<g fill="url(#gradient1)" stroke="none" transform="matrix(2.27273,0,0,2.27273,-9.68922e-14,-113.636)"
font-family="Inter" font-size="9" font-weight="400" font-style="normal" 
opacity="0.95" >
<ellipse cx="11" cy="61" rx="9" ry="9"/>
</g>

<g fill="#000000" fill-opacity="1" stroke="none" transform="matrix(3.125,0,0,3.21009,-253.842,-3105.19)"
font-family="Inter" font-size="9" font-weight="400" font-style="normal" 
opacity="0.233333" >
<path vector-effect="none" fill-rule="evenodd" d="M84.8679,975.159 L88.2496,975.159 C88.6999,975.159 89.0659,975.528 89.0684,975.978 L89.0684,979.36 L84.8679,975.159"/>
</g>

<g fill="#000000" fill-opacity="1" stroke="none" transform="matrix(3.125,0,0,3.21009,-253.842,-3105.19)"
font-family="Inter" font-size="9" font-weight="400" font-style="normal" 
opacity="0.233333" >
<path vector-effect="none" fill-rule="evenodd" d="M93.5911,975.064 L90.2094,975.064 C89.7591,975.064 89.3931,974.696 89.3906,974.245 L89.3906,970.864 L93.5911,975.064"/>
</g>

<g fill="none" stroke="none" transform="matrix(2.27273,0,0,2.27273,-9.68922e-14,-113.636)"
font-family="Inter" font-size="9" font-weight="400" font-style="normal" 
>
<rect x="4.26326e-14" y="50" width="22" height="22"/>
</g>

<g fill="none" stroke="#000000" stroke-opacity="1" stroke-width="1" stroke-linecap="square" stroke-linejoin="bevel" transform="matrix(1,0,0,1,0,0)"
font-family="Inter" font-size="9" font-weight="400" font-style="normal" 
>
</g>
</g>
</svg>
