<?xml version="1.0" encoding="UTF-8" standalone="no"?>
<svg viewBox="0 0 50 50"
 xmlns="http://www.w3.org/2000/svg" xmlns:xlink="http://www.w3.org/1999/xlink"  version="1.2" baseProfile="tiny">
<title>Qt SVG Document</title>
<desc>Generated with Qt</desc>
<defs>
<linearGradient gradientUnits="userSpaceOnUse" x1="1296" y1="261" x2="1308" y2="249" id="gradient1">
    <stop offset="0" stop-color="#00dc96" stop-opacity="1" />
    <stop offset="1" stop-color="#14d29b" stop-opacity="1" />
</linearGradient>
</defs>
<g fill="none" stroke="black" stroke-width="1" fill-rule="evenodd" stroke-linecap="square" stroke-linejoin="bevel" >

<g fill="#000000" fill-opacity="1" stroke="none" transform="matrix(2.27273,0,0,2.27273,-2.16744e-06,-2.16744e-06)"
font-family="Inter" font-size="9" font-weight="400" font-style="normal" 
opacity="0" >
<rect x="9.53674e-07" y="9.53674e-07" width="22" height="22"/>
</g>

<g fill="url(#gradient1)" stroke="none" transform="matrix(2.27273,0,0,2.27273,-2934.09,-554.546)"
font-family="Inter" font-size="9" font-weight="400" font-style="normal" 
opacity="0.95" >
<ellipse cx="1302" cy="255" rx="7" ry="7"/>
</g>

<g fill="#6e6e6e" fill-opacity="1" stroke="none" transform="matrix(2.27273,0,0,2.27273,-2934.09,-554.546)"
font-family="Inter" font-size="9" font-weight="400" font-style="normal" 
opacity="0" >
<path vector-effect="none" fill-rule="nonzero" d="M1302,248 C1298.13,248 1295,251.134 1295,255 C1295,258.866 1298.13,262 1302,262 C1305.87,262 1309,258.866 1309,255 C1309,251.134 1305.87,248 1302,248 M1302,249 C1305.31,249 1308,251.686 1308,255 C1308,258.314 1305.31,261 1302,261 C1298.69,261 1296,258.314 1296,255 C1296,251.686 1298.69,249 1302,249 "/>
</g>

<g fill="none" stroke="none" transform="matrix(2.27273,0,0,2.27273,-1159.09,428.722)"
font-family="Inter" font-size="9" font-weight="400" font-style="normal" 
>
<rect x="513" y="-185.638" width="16" height="16"/>
</g>

<g fill="none" stroke="#000000" stroke-opacity="1" stroke-width="1" stroke-linecap="square" stroke-linejoin="bevel" transform="matrix(1,0,0,1,0,0)"
font-family="Inter" font-size="9" font-weight="400" font-style="normal" 
>
</g>
</g>
</svg>
