<?xml version="1.0" encoding="UTF-8" standalone="no"?>
<svg viewBox="0 0 50 50"
 xmlns="http://www.w3.org/2000/svg" xmlns:xlink="http://www.w3.org/1999/xlink"  version="1.2" baseProfile="tiny">
<title>Qt SVG Document</title>
<desc>Generated with Qt</desc>
<defs>
<linearGradient gradientUnits="userSpaceOnUse" x1="1296.02" y1="260.945" x2="1308.05" y2="249.103" id="gradient1">
    <stop offset="0" stop-color="#00dc96" stop-opacity="1" />
    <stop offset="1" stop-color="#14d29b" stop-opacity="1" />
</linearGradient>
</defs>
<g fill="none" stroke="black" stroke-width="1" fill-rule="evenodd" stroke-linecap="square" stroke-linejoin="bevel" >

<g fill="url(#gradient1)" stroke="none" transform="matrix(2.27273,0,0,2.27273,9.68922e-14,-56.8182)"
font-family="Inter" font-size="9" font-weight="400" font-style="normal" 
opacity="0.95" >
<ellipse cx="11" cy="36" rx="9" ry="9"/>
</g>

<g fill="#ffffff" fill-opacity="1" stroke="none" transform="matrix(3.02681,0,0,3.02681,-244.377,-2926.15)"
font-family="Inter" font-size="9" font-weight="400" font-style="normal" 
>
<path vector-effect="none" fill-rule="evenodd" d="M87.7997,972 L91.1814,972 C91.6317,972 91.9977,972.368 92.0002,972.819 L92.0002,976.201 L87.7997,972 M90.2071,978.007 L86.812,978.007 C86.3617,978.007 85.9933,977.639 85.9933,977.188 L85.9933,973.793 L90.2071,978.007"/>
</g>

<g fill="none" stroke="none" transform="matrix(2.27273,0,0,2.27273,9.68922e-14,-56.8182)"
font-family="Inter" font-size="9" font-weight="400" font-style="normal" 
>
<rect x="-4.26326e-14" y="25" width="22" height="22"/>
</g>

<g fill="none" stroke="#000000" stroke-opacity="1" stroke-width="1" stroke-linecap="square" stroke-linejoin="bevel" transform="matrix(1,0,0,1,0,0)"
font-family="Inter" font-size="9" font-weight="400" font-style="normal" 
>
</g>
</g>
</svg>
